<mxfile host="drawio-plugin" modified="2021-07-12T20:26:03.139Z" agent="5.0 (X11; Linux x86_64) AppleWebKit/537.36 (KHTML, like Gecko) Chrome/89.0.4389.90 Safari/537.36" etag="59CaSUE5xJltQdbP_xz8" version="14.7.4" type="embed"><diagram id="sRglQ_6Rdkrzdb2ZWjGQ" name="Page-1"><mxGraphModel dx="686" dy="522" grid="1" gridSize="10" guides="1" tooltips="1" connect="1" arrows="1" fold="1" page="1" pageScale="1" pageWidth="850" pageHeight="1100" math="0" shadow="0"><root><mxCell id="0"/><mxCell id="1" parent="0"/><mxCell id="i8lRXZoWjw41oYlx5gEb-7" style="edgeStyle=orthogonalEdgeStyle;rounded=0;orthogonalLoop=1;jettySize=auto;html=1;curved=1;exitX=0;exitY=0;exitDx=0;exitDy=0;entryX=0;entryY=1;entryDx=0;entryDy=0;" parent="1" source="i8lRXZoWjw41oYlx5gEb-1" target="i8lRXZoWjw41oYlx5gEb-1" edge="1"><mxGeometry relative="1" as="geometry"><mxPoint x="160" y="280" as="targetPoint"/><Array as="points"><mxPoint x="140" y="256"/><mxPoint x="140" y="284"/></Array></mxGeometry></mxCell><mxCell id="i8lRXZoWjw41oYlx5gEb-8" value="path" style="edgeLabel;html=1;align=center;verticalAlign=middle;resizable=0;points=[];" parent="i8lRXZoWjw41oYlx5gEb-7" vertex="1" connectable="0"><mxGeometry x="-0.3607" y="3" relative="1" as="geometry"><mxPoint x="-23" y="14" as="offset"/></mxGeometry></mxCell><mxCell id="i8lRXZoWjw41oYlx5gEb-9" style="edgeStyle=orthogonalEdgeStyle;curved=1;rounded=0;orthogonalLoop=1;jettySize=auto;html=1;entryX=0;entryY=0.5;entryDx=0;entryDy=0;" parent="1" source="i8lRXZoWjw41oYlx5gEb-1" target="i8lRXZoWjw41oYlx5gEb-3" edge="1"><mxGeometry relative="1" as="geometry"><Array as="points"><mxPoint x="210" y="270"/><mxPoint x="210" y="270"/></Array></mxGeometry></mxCell><mxCell id="i8lRXZoWjw41oYlx5gEb-10" value="parent" style="edgeLabel;html=1;align=center;verticalAlign=middle;resizable=0;points=[];" parent="i8lRXZoWjw41oYlx5gEb-9" vertex="1" connectable="0"><mxGeometry x="-0.27" y="2" relative="1" as="geometry"><mxPoint x="23" y="2" as="offset"/></mxGeometry></mxCell><mxCell id="i8lRXZoWjw41oYlx5gEb-13" style="rounded=0;orthogonalLoop=1;jettySize=auto;html=1;entryX=0;entryY=1;entryDx=0;entryDy=0;endArrow=classic;endFill=1;exitX=1;exitY=0;exitDx=0;exitDy=0;" parent="1" source="i8lRXZoWjw41oYlx5gEb-1" target="i8lRXZoWjw41oYlx5gEb-4" edge="1"><mxGeometry relative="1" as="geometry"/></mxCell><mxCell id="i8lRXZoWjw41oYlx5gEb-14" value="filename" style="edgeLabel;html=1;align=center;verticalAlign=middle;resizable=0;points=[];rotation=0;" parent="i8lRXZoWjw41oYlx5gEb-13" vertex="1" connectable="0"><mxGeometry x="0.1229" y="-8" relative="1" as="geometry"><mxPoint x="-11" y="-9" as="offset"/></mxGeometry></mxCell><mxCell id="i8lRXZoWjw41oYlx5gEb-15" style="rounded=0;orthogonalLoop=1;jettySize=auto;html=1;endArrow=classic;endFill=1;exitX=0.5;exitY=0;exitDx=0;exitDy=0;entryX=0;entryY=1;entryDx=0;entryDy=0;" parent="1" source="i8lRXZoWjw41oYlx5gEb-1" target="i8lRXZoWjw41oYlx5gEb-6" edge="1"><mxGeometry relative="1" as="geometry"/></mxCell><mxCell id="i8lRXZoWjw41oYlx5gEb-16" value="stem&lt;br&gt;extension" style="edgeLabel;html=1;align=center;verticalAlign=middle;resizable=0;points=[];" parent="i8lRXZoWjw41oYlx5gEb-15" vertex="1" connectable="0"><mxGeometry x="-0.0623" y="-8" relative="1" as="geometry"><mxPoint x="-11" as="offset"/></mxGeometry></mxCell><mxCell id="i8lRXZoWjw41oYlx5gEb-17" style="rounded=0;orthogonalLoop=1;jettySize=auto;html=1;entryX=0;entryY=0;entryDx=0;entryDy=0;endArrow=classic;endFill=1;" parent="1" source="i8lRXZoWjw41oYlx5gEb-1" target="i8lRXZoWjw41oYlx5gEb-5" edge="1"><mxGeometry relative="1" as="geometry"/></mxCell><mxCell id="i8lRXZoWjw41oYlx5gEb-19" value="to_uppercase&lt;br&gt;to_lowercase&lt;br&gt;capitalize" style="edgeLabel;html=1;align=center;verticalAlign=middle;resizable=0;points=[];rotation=0;" parent="i8lRXZoWjw41oYlx5gEb-17" vertex="1" connectable="0"><mxGeometry x="-0.1508" y="-1" relative="1" as="geometry"><mxPoint x="-7" y="-15" as="offset"/></mxGeometry></mxCell><mxCell id="i8lRXZoWjw41oYlx5gEb-1" value="q&lt;sub&gt;0&lt;/sub&gt;" style="ellipse;shape=doubleEllipse;whiteSpace=wrap;html=1;aspect=fixed;perimeterSpacing=0;shadow=0;spacing=2;" parent="1" vertex="1"><mxGeometry x="160" y="250" width="40" height="40" as="geometry"/></mxCell><mxCell id="i8lRXZoWjw41oYlx5gEb-20" style="edgeStyle=none;rounded=1;sketch=0;orthogonalLoop=1;jettySize=auto;html=1;entryX=0.279;entryY=0.929;entryDx=0;entryDy=0;entryPerimeter=0;" parent="1" source="i8lRXZoWjw41oYlx5gEb-3" target="i8lRXZoWjw41oYlx5gEb-4" edge="1"><mxGeometry relative="1" as="geometry"><mxPoint x="437" y="130" as="targetPoint"/></mxGeometry></mxCell><mxCell id="2" value="filename" style="edgeLabel;html=1;align=center;verticalAlign=middle;resizable=0;points=[];" vertex="1" connectable="0" parent="i8lRXZoWjw41oYlx5gEb-20"><mxGeometry x="-0.2309" y="-2" relative="1" as="geometry"><mxPoint as="offset"/></mxGeometry></mxCell><mxCell id="i8lRXZoWjw41oYlx5gEb-21" style="edgeStyle=none;rounded=1;sketch=0;orthogonalLoop=1;jettySize=auto;html=1;entryX=0.5;entryY=0;entryDx=0;entryDy=0;" parent="1" source="i8lRXZoWjw41oYlx5gEb-3" target="i8lRXZoWjw41oYlx5gEb-5" edge="1"><mxGeometry relative="1" as="geometry"/></mxCell><mxCell id="i8lRXZoWjw41oYlx5gEb-22" value="to_uppercase&lt;br&gt;to_lowercase&lt;br&gt;capitalize" style="edgeLabel;html=1;align=center;verticalAlign=middle;resizable=0;points=[];" parent="i8lRXZoWjw41oYlx5gEb-21" vertex="1" connectable="0"><mxGeometry x="-0.3738" relative="1" as="geometry"><mxPoint x="9" y="8" as="offset"/></mxGeometry></mxCell><mxCell id="i8lRXZoWjw41oYlx5gEb-30" style="edgeStyle=orthogonalEdgeStyle;curved=1;rounded=1;sketch=0;orthogonalLoop=1;jettySize=auto;html=1;" parent="1" source="i8lRXZoWjw41oYlx5gEb-3" target="i8lRXZoWjw41oYlx5gEb-3" edge="1"><mxGeometry relative="1" as="geometry"><mxPoint x="350" y="220" as="targetPoint"/></mxGeometry></mxCell><mxCell id="i8lRXZoWjw41oYlx5gEb-31" value="path" style="edgeLabel;html=1;align=center;verticalAlign=middle;resizable=0;points=[];" parent="i8lRXZoWjw41oYlx5gEb-30" vertex="1" connectable="0"><mxGeometry x="0.497" y="2" relative="1" as="geometry"><mxPoint x="21" y="-12" as="offset"/></mxGeometry></mxCell><mxCell id="i8lRXZoWjw41oYlx5gEb-3" value="q&lt;sub&gt;1&lt;/sub&gt;" style="ellipse;shape=doubleEllipse;whiteSpace=wrap;html=1;aspect=fixed;perimeterSpacing=0;shadow=0;spacing=2;" parent="1" vertex="1"><mxGeometry x="330" y="250" width="40" height="40" as="geometry"/></mxCell><mxCell id="i8lRXZoWjw41oYlx5gEb-23" style="edgeStyle=none;rounded=1;sketch=0;orthogonalLoop=1;jettySize=auto;html=1;" parent="1" source="i8lRXZoWjw41oYlx5gEb-4" target="i8lRXZoWjw41oYlx5gEb-6" edge="1"><mxGeometry relative="1" as="geometry"/></mxCell><mxCell id="i8lRXZoWjw41oYlx5gEb-24" value="stem&lt;br&gt;extension" style="edgeLabel;html=1;align=center;verticalAlign=middle;resizable=0;points=[];" parent="i8lRXZoWjw41oYlx5gEb-23" vertex="1" connectable="0"><mxGeometry x="-0.2013" y="2" relative="1" as="geometry"><mxPoint x="-14" y="-4" as="offset"/></mxGeometry></mxCell><mxCell id="i8lRXZoWjw41oYlx5gEb-25" style="edgeStyle=orthogonalEdgeStyle;rounded=1;sketch=0;orthogonalLoop=1;jettySize=auto;html=1;entryX=1;entryY=0;entryDx=0;entryDy=0;exitX=1;exitY=0.5;exitDx=0;exitDy=0;curved=1;" parent="1" source="i8lRXZoWjw41oYlx5gEb-4" target="i8lRXZoWjw41oYlx5gEb-5" edge="1"><mxGeometry relative="1" as="geometry"><Array as="points"><mxPoint x="485" y="110"/><mxPoint x="485" y="496"/></Array></mxGeometry></mxCell><mxCell id="i8lRXZoWjw41oYlx5gEb-26" value="to_uppercase&lt;br&gt;to_lowercase&lt;br&gt;capitalize" style="edgeLabel;html=1;align=center;verticalAlign=middle;resizable=0;points=[];" parent="i8lRXZoWjw41oYlx5gEb-25" vertex="1" connectable="0"><mxGeometry x="-0.1609" relative="1" as="geometry"><mxPoint y="14" as="offset"/></mxGeometry></mxCell><mxCell id="i8lRXZoWjw41oYlx5gEb-4" value="q&lt;sub&gt;2&lt;/sub&gt;" style="ellipse;shape=doubleEllipse;whiteSpace=wrap;html=1;aspect=fixed;perimeterSpacing=0;shadow=0;spacing=2;" parent="1" vertex="1"><mxGeometry x="370" y="90" width="40" height="40" as="geometry"/></mxCell><mxCell id="i8lRXZoWjw41oYlx5gEb-5" value="q&lt;sub&gt;3&lt;/sub&gt;" style="ellipse;shape=doubleEllipse;whiteSpace=wrap;html=1;aspect=fixed;perimeterSpacing=0;shadow=0;spacing=2;" parent="1" vertex="1"><mxGeometry x="385" y="490" width="40" height="40" as="geometry"/></mxCell><mxCell id="i8lRXZoWjw41oYlx5gEb-27" style="edgeStyle=orthogonalEdgeStyle;rounded=1;sketch=0;orthogonalLoop=1;jettySize=auto;html=1;curved=1;entryX=1;entryY=0.5;entryDx=0;entryDy=0;" parent="1" source="i8lRXZoWjw41oYlx5gEb-6" target="i8lRXZoWjw41oYlx5gEb-5" edge="1"><mxGeometry relative="1" as="geometry"><mxPoint x="430" y="510" as="targetPoint"/><Array as="points"><mxPoint x="250" y="30"/><mxPoint x="600" y="30"/><mxPoint x="600" y="510"/></Array></mxGeometry></mxCell><mxCell id="i8lRXZoWjw41oYlx5gEb-29" value="to_uppercase&lt;br&gt;to_lowercase&lt;br&gt;capitalize" style="edgeLabel;html=1;align=center;verticalAlign=middle;resizable=0;points=[];" parent="i8lRXZoWjw41oYlx5gEb-27" vertex="1" connectable="0"><mxGeometry x="0.2805" y="-4" relative="1" as="geometry"><mxPoint y="-39" as="offset"/></mxGeometry></mxCell><mxCell id="i8lRXZoWjw41oYlx5gEb-6" value="q&lt;sub&gt;4&lt;/sub&gt;" style="ellipse;shape=doubleEllipse;whiteSpace=wrap;html=1;aspect=fixed;perimeterSpacing=0;shadow=0;spacing=2;" parent="1" vertex="1"><mxGeometry x="230" y="70" width="40" height="40" as="geometry"/></mxCell></root></mxGraphModel></diagram></mxfile>